<?xml version="1.0" encoding="utf-8"?>
<svg width="345px" height="110px" viewBox="0 0 345 110" version="1.1" xmlns:xlink="http://www.w3.org/1999/xlink" xmlns="http://www.w3.org/2000/svg">
  <defs>
    <path d="M0 0L345 0L345 109.165L0 109.165L0 0Z" id="path_1" />
    <clipPath id="mask_1">
      <use xlink:href="#path_1" />
    </clipPath>
  </defs>
  <g id="care_comiision">
    <path d="M0 0L345 0L345 109.165L0 109.165L0 0Z" id="Background" fill="none" fill-rule="evenodd" stroke="none" />
    <g clip-path="url(#mask_1)">
      <g id="b8bd8528-2544-485b-b4e2-ec2a2139f03e" transform="translate(-0.011230469 0.1616211)">
        <g id="a5d6da6d-4ab4-44e5-974f-a35d3ee77710">
          <path d="M147.743 61.1978C141.022 61.1978 136.692 66.1189 136.692 73.3741C136.692 80.6292 140.98 85.4519 147.406 85.4519C154.099 85.4519 158.429 80.6292 158.429 73.3741C158.429 66.1189 154.211 61.1978 147.743 61.1978M147.645 82.0635C143.68 82.0635 140.727 78.5343 140.727 73.2336C140.727 67.9328 143.427 64.5161 147.518 64.5161C151.61 64.5161 154.38 68.1015 154.38 73.4023C154.38 78.703 151.961 82.0354 147.659 82.0354M287.63 53.0567C286.256 53.0567 285.142 54.1709 285.142 55.5454C285.142 56.9198 286.256 58.0341 287.63 58.0341C289.005 58.0341 290.119 56.9198 290.119 55.5454C290.123 54.8842 289.862 54.249 289.394 53.7815C288.927 53.3139 288.292 53.0529 287.63 53.0567M125.303 81.7401C118.273 81.7401 113.9 76.6783 113.9 68.8889C113.9 61.0994 119.145 56.2345 125.64 56.2345C128.353 56.1958 131.02 56.943 133.317 58.3857L135.159 55.419C134.78 55.0253 131.701 52.4663 125.401 52.4663C116.628 52.4663 109.513 58.6669 109.513 69.3388C109.513 79.6029 116.234 85.6207 124.769 85.6207C128.606 85.7583 132.376 84.5828 135.455 82.2884L133.585 79.2514C131.098 80.8212 128.229 81.6817 125.289 81.7401M305.121 61.1978C298.4 61.1978 294.07 66.1189 294.07 73.3741C294.07 80.6292 298.288 85.4519 304.784 85.4519C311.463 85.4519 315.807 80.6292 315.807 73.3741C315.807 66.1189 311.589 61.1978 305.121 61.1978M305.037 82.0635C301.072 82.0635 298.119 78.5343 298.119 73.2336C298.119 67.9328 300.692 64.5161 304.84 64.5161C308.988 64.5161 311.716 68.1015 311.716 73.4023C311.716 78.703 309.283 82.0354 304.995 82.0354M330.838 61.1699C328.26 61.228 325.756 62.0447 323.639 63.518L323.639 61.8167L320.025 61.8167L320.025 84.932L324.061 84.932L324.061 66.6535C325.871 65.4658 327.96 64.7726 330.121 64.6428C331.304 64.5999 332.459 65.0069 333.355 65.7817C334.55 66.9769 334.606 68.8891 334.606 71.7996L334.606 84.932L338.655 84.932L338.655 71.5465C338.655 67.8205 338.557 65.4302 336.364 63.2368C334.88 61.8302 332.879 61.1022 330.838 61.2262M186.367 61.226C183.492 61.316 180.707 62.2446 178.353 63.8975C177.045 62.1203 174.933 61.1171 172.729 61.226C170.213 61.3455 167.78 62.1581 165.698 63.5741L165.698 61.8165L162.071 61.8165L162.071 84.9318L166.12 84.9318L166.12 66.5408C167.913 65.4425 169.943 64.7915 172.04 64.6427C173.135 64.5869 174.209 64.9601 175.034 65.6832C176.23 66.9345 176.173 69.0295 176.173 72.1369L176.173 84.9318L180.195 84.9318L180.195 71.9963C180.294 70.1825 180.161 68.3634 179.801 66.583C181.643 65.4411 183.74 64.7743 185.903 64.6427C187.079 64.5491 188.235 64.9877 189.053 65.8378C190.248 67.1173 190.206 70.0559 190.206 71.462L190.206 84.974L194.255 84.974L194.255 71.5463C194.255 67.8203 194.171 65.4301 191.963 63.2366C190.479 61.8301 188.478 61.102 186.437 61.226M235.958 84.9598L240.022 84.9598L240.022 61.8164L235.958 61.8164L235.958 84.9598ZM237.969 53.1131C236.959 53.1074 236.045 53.7132 235.657 54.6462C235.269 55.5792 235.484 56.6541 236.2 57.3665C236.917 58.0789 237.993 58.2875 238.924 57.8942C239.854 57.501 240.455 56.584 240.444 55.5737C240.444 54.2046 239.338 53.0927 237.969 53.085M223.037 61.1976C220.166 61.2871 217.385 62.2159 215.036 63.8691C213.727 62.0939 211.616 61.0913 209.412 61.1976C206.898 61.3235 204.467 62.1356 202.382 63.5457L202.382 61.8163L198.769 61.8163L198.769 84.9316L202.818 84.9316L202.818 66.5406C204.605 65.4413 206.631 64.7902 208.723 64.6424C209.824 64.5829 210.904 64.9563 211.732 65.6829C212.927 66.9343 212.871 69.0293 212.871 72.1366L212.871 84.9316L216.878 84.9316L216.878 71.996C216.974 70.1828 216.847 68.3648 216.499 66.5827C218.34 65.4386 220.437 64.7717 222.601 64.6424C223.776 64.5548 224.929 64.9925 225.75 65.8376C226.932 67.1171 226.903 70.0557 226.903 71.4617L226.903 84.9738L230.953 84.9738L230.953 71.5461C230.953 67.8201 230.854 65.4298 228.647 63.2364C227.167 61.8239 225.163 61.0949 223.121 61.2257M249.499 67.5248C249.499 65.8094 250.905 64.4174 253.717 64.4174C255.651 64.4666 257.539 65.0139 259.2 66.0062L260.733 63.2926C258.578 61.8532 256.025 61.13 253.435 61.2257C248.711 61.2257 245.379 63.855 245.379 67.7778C245.379 75.1314 256.768 74.0769 256.768 78.8012C256.768 80.854 254.827 82.246 252.339 82.246C250.121 82.2453 247.948 81.6217 246.068 80.4463L244.535 83.2583C246.875 84.8129 249.628 85.6308 252.437 85.6064C256.965 85.6064 260.873 83.0334 260.873 78.5762C260.873 71.2367 249.344 72.0522 249.344 67.5951M285.634 85.0301L289.655 85.0301L289.655 61.8164L285.605 61.8164L285.634 85.0301ZM268.986 67.4968C268.986 65.7815 270.392 64.3895 273.204 64.3895C275.138 64.4387 277.027 64.9859 278.688 65.9783L280.22 63.2647C278.063 61.8314 275.512 61.1087 272.923 61.1978C268.199 61.1978 264.866 63.8271 264.866 67.7499C264.866 75.1035 276.255 74.049 276.255 78.7733C276.255 80.8261 274.301 82.2181 271.812 82.2181C269.67 82.1842 267.576 81.5721 265.752 80.4465L264.22 83.2585C266.555 84.8015 269.295 85.6186 272.094 85.6066C276.607 85.6066 280.53 83.0336 280.53 78.5764C280.53 71.2369 268.986 72.0524 268.986 67.5953" id="Shape" fill="#73797C" fill-rule="evenodd" stroke="none" />
          <path d="M125.149 44.9444C129.354 45.0739 133.467 43.6866 136.734 41.0356L133.922 36.5503C131.56 38.1414 128.809 39.06 125.964 39.2077C119.988 39.2077 116.122 34.9053 116.122 28.3672C116.122 21.8291 120.537 17.6391 126.245 17.6391C128.939 17.5842 131.573 18.4358 133.725 20.0575L136.608 15.6706C136.397 15.3051 133.065 11.9868 126.02 11.9868C116.628 11.9868 109.471 18.2578 109.471 28.7327C109.471 38.814 116.305 44.9444 125.163 44.9444M138.576 37.2533C138.446 39.273 139.193 41.2506 140.625 42.6804C142.058 44.1101 144.037 44.8531 146.056 44.7194C148.414 44.6913 150.704 43.9296 152.608 42.5401L152.608 44.1992L158.106 44.1992L158.106 30.2794C158.106 27.2564 158.106 24.8521 156.236 22.9258C154.14 21.115 151.423 20.1876 148.657 20.3387C145.531 20.2241 142.447 21.0947 139.841 22.8274L141.951 26.8768C143.855 25.8453 145.973 25.2679 148.137 25.1895C149.314 25.0714 150.491 25.4085 151.427 26.1316C152.088 26.7924 152.13 27.4392 152.13 28.8593L151.469 28.8593C148.657 28.8593 138.576 29.014 138.576 37.2955M152.131 38.5328C150.831 39.4404 149.286 39.9308 147.702 39.9388C146.155 39.9388 144.116 39.2921 144.116 36.8737C144.116 33.9491 147.041 33.2461 151.146 33.2461L152.145 33.2461L152.131 38.5328ZM167.471 28.9996C168.918 26.843 171.37 25.5796 173.966 25.6533C174.438 25.6658 174.908 25.7128 175.372 25.7939L176.779 20.9852C175.962 20.5656 175.053 20.3577 174.135 20.3806C171.184 20.4021 168.387 21.7055 166.472 23.952L166.472 20.929L161.045 20.929L161.045 44.1989L167.414 44.1989L167.471 28.9996ZM187.464 20.3806C180.884 20.3806 176.356 25.6532 176.356 32.7818C176.356 39.5168 180.364 44.9019 187.9 44.9019C191.022 44.9371 194.085 44.0467 196.702 42.3429L194.621 38.2935C192.709 39.3089 190.585 39.8581 188.42 39.8964C183.822 39.8964 182.402 36.3672 182.501 34.6659L197.756 34.6659C197.756 34.3285 197.855 33.6676 197.855 32.6834C197.855 25.147 194.227 20.3384 187.436 20.3384M182.458 30.0825C182.922 27.2704 184.708 25.0488 187.576 25.0488C191.485 25.0488 191.963 28.817 191.963 30.0825L182.458 30.0825ZM244.549 44.8319C246.918 44.6908 249.192 43.8545 251.088 42.4276L251.088 44.171L256.515 44.171L256.515 20.9292L250.16 20.9292L250.16 37.9704C248.909 38.8161 247.45 39.3025 245.941 39.3764C245.032 39.4431 244.134 39.1387 243.453 38.5328C242.595 37.6751 242.454 36.1707 242.454 33.1477L242.454 20.9292L236.099 20.9292L236.099 33.443C236.099 36.4519 236.001 39.9389 238.588 42.54C240.186 44.0745 242.335 44.9005 244.549 44.8319M273.078 42.5117L273.078 44.1708L278.575 44.1708L278.575 30.251C278.575 27.228 278.575 24.8237 276.691 22.8974C274.597 21.0827 271.879 20.1547 269.113 20.3103C265.991 20.1977 262.912 21.0682 260.311 22.799L262.42 26.8484C264.311 25.8183 266.413 25.2362 268.564 25.1471C269.742 25.023 270.921 25.3608 271.855 26.0891C272.529 26.7499 272.572 27.3967 272.572 28.8168L271.911 28.8168C269.099 28.8168 259.003 28.9715 259.003 37.2531C258.873 39.2753 259.622 41.2555 261.057 42.6857C262.493 44.1159 264.476 44.8571 266.498 44.7191C268.855 44.691 271.145 43.9293 273.05 42.5398M264.614 36.8317C264.614 33.9071 267.538 33.2041 271.644 33.2041L272.628 33.2041L272.628 38.4908C271.329 39.3984 269.784 39.8888 268.199 39.8969C266.638 39.8969 264.614 39.2501 264.614 36.8317M288.08 10.1167L281.711 10.1167L281.711 44.1991L288.08 44.1991L288.08 10.1167ZM294.534 18.117C296.537 18.117 298.162 16.4929 298.162 14.4894C298.162 12.4859 296.537 10.8618 294.534 10.8618C292.531 10.8618 290.906 12.4859 290.906 14.4894C290.899 15.4538 291.279 16.3809 291.961 17.0629C292.642 17.7448 293.57 18.1246 294.534 18.117M297.74 20.9292L291.385 20.9292L291.385 44.1992L297.74 44.1992L297.74 20.9292ZM314.176 39.4749C311.364 39.4749 311.252 37.3518 311.252 35.5099L311.252 26.2722L317.86 26.2722L317.86 20.9292L311.252 20.9292L311.252 14.5317L304.896 14.5317L304.896 20.9292L300.903 20.9292L300.903 26.2722L304.911 26.2722L304.911 35.3271C304.911 38.5891 304.911 40.7966 306.893 42.7791C308.54 44.2082 310.677 44.9439 312.855 44.8319C314.904 44.8877 316.927 44.3611 318.69 43.3134L317.087 38.9265C316.161 39.2966 315.174 39.492 314.176 39.503M324.244 49.9639C323.01 49.956 321.792 49.6826 320.673 49.1625L318.774 53.6899C320.558 54.6462 322.557 55.1302 324.581 55.096C327.075 55.261 329.526 54.3913 331.358 52.6916C333.004 51.0466 334.044 48.9235 335.844 44.3398L345.011 20.9292L338.74 20.9292L332.961 37.2533L326.747 20.9292L320.012 20.9292L329.713 44.1429C329.225 45.8093 328.444 47.3757 327.408 48.7688C326.561 49.5807 325.415 50.0035 324.244 49.9358M233.231 28.2546C233.231 18.792 227.171 11.9727 217.877 11.9727C208.583 11.9727 202.481 18.5389 202.481 28.2546C202.481 37.9703 208.611 44.8318 217.61 45.0427L217.947 45.0427C222.32 45.1411 225.343 46.6034 227.269 48.9796C227.916 48.5578 232.655 44.4662 232.655 44.4662C231.196 43.0451 229.286 42.1795 227.255 42.0197C230.967 39.2076 233.231 34.3428 233.231 28.2687M217.947 39.4188C212.984 39.4188 209.216 35.2991 209.216 28.6907C209.216 22.0823 212.52 17.4424 217.568 17.4424C222.868 17.4424 226.412 21.9417 226.412 28.1986C226.412 33.2603 224.485 39.4469 217.975 39.4469" id="Shape" fill="#73797C" fill-rule="evenodd" stroke="none" />
          <path d="M76.8933 88.5173C96.5084 74.633 103.074 48.5222 92.3586 27.0114C81.6433 5.50065 56.8467 -4.98763 33.9482 2.30546C11.0498 9.59856 -3.11376 32.4955 0.58498 56.241C4.28372 79.9865 24.7404 97.4909 48.7722 97.4738L50.1785 97.4738C63.1422 97.6988 72.0425 102.001 77.7369 109.003C79.6491 107.752 93.4705 95.8428 93.4705 95.8428C93.4705 95.8428 88.4931 89.825 76.8933 88.5173M47.6896 84.9739C59.9755 82.3976 70.0968 73.729 74.5309 61.9852C68.4158 73.8945 54.9506 80.0788 41.932 76.9571C28.9135 73.8355 19.717 62.2172 19.6677 48.8298C19.6183 35.4423 28.7289 23.7566 41.724 20.5391C54.7192 17.3215 68.2297 23.4064 74.4325 35.2703C74.4639 35.2836 74.4995 35.2837 74.5309 35.2704C70.0745 23.553 59.9591 14.9106 47.6896 12.3379C48.0833 12.3379 48.4911 12.3379 48.8988 12.3379C61.8891 12.3379 73.8926 19.2681 80.3877 30.518C86.8828 41.7679 86.8828 55.6283 80.3877 66.8782C73.8926 78.1281 61.8891 85.0583 48.8988 85.0583C48.4911 85.0583 48.0833 85.0583 47.6896 85.0583" id="Shape" fill="#6F2564" fill-rule="evenodd" stroke="none" />
        </g>
      </g>
    </g>
  </g>
</svg>